<svg xmlns="http://www.w3.org/2000/svg" xmlns:xlink="http://www.w3.org/1999/xlink" width="950.293" height="282" viewBox="0 0 950.293 282"><defs><linearGradient id="a" x1="0.029" y1="0.692" x2="1.042" y2="0.671" gradientUnits="objectBoundingBox"><stop offset="0" stop-color="#e1ff31"/><stop offset="0.121" stop-color="#cef332"/><stop offset="1" stop-color="#00fb75"/></linearGradient><linearGradient id="b" x1="0.021" y1="-0.456" x2="0.985" y2="-0.434" gradientUnits="objectBoundingBox"><stop offset="0" stop-color="#e1ff31"/><stop offset="1" stop-color="#8dffa8"/></linearGradient></defs><g transform="translate(-483.301 -405.637)"><path d="M147.422-103.629,120.033,0H94.162l-17.2-66.484A55.435,55.435,0,0,1,75.3-78.119h-.289a70.688,70.688,0,0,1-1.879,11.635L55.5,0H28.545L1.3-103.629h25.51l14.6,69.014a82.383,82.383,0,0,1,1.373,11.852h.434a57.366,57.366,0,0,1,2.1-12.141L64.1-103.629h25l16.982,69.592a85.213,85.213,0,0,1,1.662,11.129h.289a74.61,74.61,0,0,1,1.518-11.562l14.309-69.158ZM222.723,0H160.574V-103.629h59.764v19.006H183.916V-61.57h33.893v18.934H183.916v23.7h38.807Zm78.336,0H239.344V-103.629h23.342v84.7h38.373Zm84.551-3.686Q374.264,1.807,355.98,1.807q-23.848,0-37.506-14.02T304.816-49.574q0-24.859,15.356-40.324t39.854-15.465q15.176,0,25.582,3.83v22.475a45.33,45.33,0,0,0-23.7-6.215q-14.6,0-23.559,9.178t-8.961,24.859q0,15.031,8.455,23.956t22.764,8.925a48.554,48.554,0,0,0,25-6.648Zm60.053,5.492q-22.258,0-36.277-14.489t-14.02-37.759q0-24.57,14.236-39.746t37.723-15.176q22.186,0,35.88,14.525t13.694,38.3q0,24.426-14.2,39.385T445.662,1.807Zm1.012-87.08q-12.285,0-19.512,9.214t-7.227,24.39q0,15.393,7.227,24.354A23.155,23.155,0,0,0,446.1-18.355q12.068,0,19.15-8.708t7.082-24.173q0-16.115-6.865-25.076T446.674-85.273ZM632.18,0H609.127V-62q0-10.045.867-22.186h-.578a109.16,109.16,0,0,1-3.252,13.73L581.883,0H562.8L538.09-69.736q-1.012-2.818-3.252-14.453h-.65q.939,15.32.939,26.883V0H514.1V-103.629h34.182L569.453-42.2a86.482,86.482,0,0,1,3.686,14.814h.434a149.173,149.173,0,0,1,4.119-14.959l21.174-61.281H632.18Zm85.707,0H655.738V-103.629H715.5v19.006H679.08V-61.57h33.893v18.934H679.08v23.7h38.807ZM848.109-84.623H818.553V0H795.139V-84.623H765.727v-19.006h82.383Zm52.248,86.43q-22.258,0-36.277-14.489t-14.02-37.759q0-24.57,14.236-39.746t37.723-15.176q22.186,0,35.88,14.525t13.694,38.3q0,24.426-14.2,39.385T900.357,1.807Zm1.012-87.08q-12.285,0-19.512,9.214t-7.227,24.39q0,15.393,7.227,24.354a23.155,23.155,0,0,0,18.934,8.961q12.068,0,19.15-8.708t7.082-24.173q0-16.115-6.865-25.076T901.369-85.273Z" transform="translate(482 511)" fill="url(#a)"/><path d="M215.156-151.242,175.184,0H137.426l-25.1-97.031a80.906,80.906,0,0,1-2.426-16.98h-.422a103.165,103.165,0,0,1-2.742,16.98L81,0H41.66L1.9-151.242h37.23L60.434-50.52a120.235,120.235,0,0,1,2,17.3h.633a83.723,83.723,0,0,1,3.059-17.719l27.422-100.3h36.492L154.828-49.676a124.366,124.366,0,0,1,2.426,16.242h.422a108.889,108.889,0,0,1,2.215-16.875l20.883-100.934ZM298.266,2.637q-32.484,0-52.945-21.146T224.859-73.617q0-35.859,20.777-58.008t55.055-22.148q32.379,0,52.365,21.2t19.986,55.9q0,35.648-20.725,57.48T298.266,2.637Zm1.477-127.09q-17.93,0-28.477,13.447t-10.547,35.6q0,22.465,10.547,35.543T298.9-26.789q17.613,0,27.949-12.709t10.336-35.279q0-23.52-10.02-36.6T299.742-124.453ZM462.059,2.637q-32.484,0-52.945-21.146T388.652-73.617q0-35.859,20.777-58.008t55.055-22.148q32.379,0,52.365,21.2t19.986,55.9q0,35.648-20.725,57.48T462.059,2.637Zm1.477-127.09q-17.93,0-28.477,13.447t-10.547,35.6q0,22.465,10.547,35.543t27.633,13.078q17.613,0,27.949-12.709t10.336-35.279q0-23.52-10.02-36.6T463.535-124.453ZM652.641,0h-90.7V-151.242H649.16V-123.5H596v33.645h49.465v27.633H596v34.594h56.637ZM812.953,0H778.57L716.238-95.027a137.416,137.416,0,0,1-7.594-12.551h-.422q.844,8.016.844,24.469V0H676.9V-151.242h36.7l60.012,92.074q4.113,6.223,7.594,12.34h.422q-.844-5.273-.844-20.777v-83.637h32.168Zm125.3,0h-90.7V-151.242H934.77V-123.5H881.613v33.645h49.465v27.633H881.613v34.594H938.25Z" transform="translate(488 685)" fill="url(#b)"/></g></svg>